<?xml version="1.0" standalone="no"?>
<!DOCTYPE svg PUBLIC "-//W3C//DTD SVG 20010904//EN"
 "http://www.w3.org/TR/2001/REC-SVG-20010904/DTD/svg10.dtd">
<svg version="1.0" xmlns="http://www.w3.org/2000/svg"
 width="2000.000000pt" height="2000.000000pt" viewBox="0 0 2000.000000 2000.000000"
 preserveAspectRatio="xMidYMid meet">
<metadata>
Created by potrace 1.11, written by Peter Selinger 2001-2013
</metadata>
<g transform="translate(0.000000,2000.000000) scale(0.100000,-0.100000)"
fill="#000000" stroke="none">
<path d="M4908 15008 c4 -4 28 -10 52 -13 63 -8 186 -30 218 -39 9 -3 33 -7
52 -10 56 -9 93 -17 100 -21 4 -2 22 -7 40 -10 19 -3 68 -15 110 -26 41 -11
111 -29 155 -40 44 -11 89 -24 100 -29 11 -4 83 -28 160 -53 171 -56 317 -109
400 -147 11 -5 48 -21 83 -35 133 -54 389 -179 512 -249 25 -14 54 -30 65 -35
83 -38 525 -333 525 -350 0 -8 -45 -73 -147 -213 -43 -58 -111 -153 -152 -210
-41 -56 -168 -231 -281 -388 -113 -157 -235 -325 -270 -373 -113 -158 -187
-202 -335 -200 -44 0 -93 3 -108 7 -56 13 -123 39 -157 59 -60 37 -332 177
-344 177 -2 0 -37 15 -78 34 -87 40 -277 113 -408 156 -52 18 -104 36 -115 40
-95 38 -574 170 -690 190 -27 5 -59 11 -70 13 -11 3 -45 8 -75 12 -30 4 -63 9
-73 11 -121 22 -597 22 -677 -1 -8 -2 -31 -7 -50 -10 -183 -31 -362 -108 -476
-205 -45 -38 -121 -135 -148 -189 -52 -103 -80 -225 -79 -351 2 -372 328 -713
948 -990 39 -17 78 -35 87 -41 10 -5 22 -9 28 -9 5 0 33 -11 62 -24 95 -42
504 -172 632 -201 12 -2 61 -14 109 -25 48 -11 105 -23 125 -26 20 -3 56 -10
80 -15 23 -5 59 -12 80 -15 20 -3 40 -8 43 -10 3 -2 21 -6 40 -9 168 -29 625
-172 838 -262 58 -24 115 -47 126 -51 30 -9 296 -142 405 -202 358 -198 706
-487 927 -770 117 -151 231 -340 295 -495 74 -176 137 -393 153 -530 3 -22 7
-50 10 -61 11 -51 19 -182 19 -344 0 -262 -16 -444 -60 -660 -9 -41 -18 -86
-20 -100 -3 -14 -7 -33 -10 -42 -3 -9 -7 -25 -9 -35 -9 -42 -46 -169 -54 -188
-5 -11 -17 -42 -27 -70 -89 -259 -286 -594 -463 -789 -101 -111 -240 -243
-330 -314 -301 -238 -711 -441 -1081 -537 -56 -14 -75 -19 -170 -38 -30 -7
-60 -15 -67 -20 -6 -4 -13 -2 -15 4 -3 8 -7 7 -15 -2 -9 -12 0 -14 53 -14 35
0 64 4 64 8 0 5 4 6 9 2 16 -9 71 -13 71 -4 0 5 12 4 27 -2 19 -7 28 -6 33 2
6 8 9 7 13 -2 4 -10 6 -10 6 -2 1 9 8 10 25 3 17 -6 26 -5 30 3 2 7 5 8 5 2 1
-10 123 -10 148 -1 6 3 14 0 17 -7 3 -9 7 -8 14 2 8 11 10 11 15 0 5 -12 6
-12 6 0 1 11 4 11 18 0 19 -16 23 -16 34 3 5 7 9 8 9 3 0 -10 101 -10 127 -1
6 3 14 0 17 -7 3 -9 7 -8 14 2 8 11 10 11 15 0 4 -11 6 -11 6 -1 1 8 6 10 13
6 14 -9 164 -8 178 1 4 3 11 -1 13 -7 4 -10 8 -10 15 1 8 11 10 11 15 0 4 -11
6 -11 6 -1 1 8 6 10 13 6 14 -9 164 -8 178 1 4 3 11 -1 13 -7 4 -10 8 -10 15
1 8 11 10 11 15 0 5 -12 6 -12 6 0 1 11 4 11 16 1 12 -10 15 -10 15 1 0 11 2
11 10 -1 8 -12 11 -13 19 -1 7 11 9 11 14 0 4 -11 6 -11 6 -1 1 8 6 10 13 6
14 -9 164 -8 178 1 4 3 11 -1 13 -7 4 -10 8 -10 15 1 8 11 10 11 15 0 5 -12 6
-12 6 0 1 11 4 11 16 1 12 -10 15 -10 15 1 0 11 2 11 10 -1 8 -12 11 -13 19
-1 7 11 9 11 14 0 4 -11 6 -11 6 -1 1 8 6 10 13 6 14 -9 164 -8 178 1 4 3 11
-1 13 -7 4 -10 8 -10 15 1 8 11 10 11 15 0 4 -11 6 -11 6 -1 1 8 6 10 13 6 40
-25 49 -13 109 126 17 41 47 108 65 148 19 41 34 76 34 79 0 2 14 34 30 70 17
35 30 66 30 68 0 2 18 43 40 90 22 47 40 90 40 94 0 4 8 25 19 47 10 21 33 73
51 114 37 85 53 122 103 235 30 68 340 781 385 885 8 19 22 49 30 66 l15 31
2002 0 2002 0 18 -41 c10 -22 36 -79 58 -126 21 -47 65 -143 97 -215 32 -71
72 -161 90 -200 18 -38 49 -108 70 -155 21 -47 56 -124 79 -173 22 -48 41 -89
41 -91 0 -2 20 -47 45 -100 25 -53 45 -99 45 -101 0 -2 18 -43 41 -92 23 -48
61 -133 86 -187 24 -54 60 -124 80 -155 36 -57 163 -190 218 -228 66 -45 196
-113 218 -113 7 0 17 -4 23 -9 14 -13 161 -49 229 -56 33 -4 71 -8 85 -11 39
-6 168 -6 179 0 5 3 12 0 14 -6 4 -10 8 -10 15 1 8 11 10 11 15 0 4 -11 6 -11
6 -1 1 8 6 10 13 6 14 -9 164 -8 178 1 4 3 11 -1 13 -7 4 -10 8 -10 15 1 8 11
10 11 15 0 4 -11 6 -11 6 -1 1 8 6 10 13 6 14 -9 164 -8 178 1 4 3 11 -1 13
-7 4 -10 8 -10 15 1 8 11 10 11 15 0 4 -11 6 -11 6 -1 1 7 6 10 13 6 9 -6 202
-9 218 -3 3 1 10 0 15 -1 32 -7 56 -6 61 2 3 4 10 6 15 2 17 -10 59 -12 65 -2
3 4 10 6 15 2 17 -10 59 -12 59 -2 0 5 5 6 11 2 15 -9 143 -9 158 0 6 4 11 4
11 -1 0 -8 129 -7 137 1 2 2 -16 51 -40 108 -25 56 -82 191 -127 298 -45 107
-93 219 -106 248 -13 29 -24 55 -24 57 0 4 -175 418 -215 510 -7 17 -45 107
-85 200 -39 94 -78 184 -85 200 -15 32 -210 494 -277 655 -22 52 -48 113 -58
135 -10 22 -48 112 -85 200 -119 285 -236 559 -250 590 -8 17 -57 131 -109
255 -109 261 -342 811 -361 855 -7 17 -70 165 -140 330 -69 165 -134 318 -145
340 -10 22 -35 81 -55 130 -20 50 -45 109 -56 132 -10 24 -35 82 -55 130 -20
49 -44 106 -54 128 -10 22 -41 96 -70 165 -29 69 -61 143 -71 166 -10 22 -28
65 -39 95 -12 29 -32 77 -46 107 -13 29 -24 55 -24 57 0 2 -11 29 -25 59 -14
30 -25 57 -25 60 0 3 -12 31 -26 63 -15 32 -32 72 -39 88 -69 165 -121 288
-137 324 -11 24 -28 66 -39 94 -11 28 -28 69 -38 91 -10 23 -49 113 -86 201
-88 209 -89 210 -119 278 -14 32 -26 59 -26 61 0 2 -47 114 -104 247 -57 134
-134 316 -171 404 -37 88 -87 207 -112 265 -25 58 -51 119 -58 135 -17 42 -64
153 -82 195 -86 200 -158 314 -266 422 -148 147 -332 241 -553 284 -83 16
-285 17 -3006 18 -1604 1 -2914 -2 -2910 -6z m5465 -2538 c55 -136 69 -170 92
-225 7 -16 41 -100 75 -185 34 -85 70 -173 80 -195 10 -22 41 -98 69 -170 29
-71 61 -149 72 -172 10 -24 19 -46 19 -49 0 -3 6 -20 14 -37 20 -47 31 -75
107 -262 38 -93 74 -179 79 -190 5 -11 34 -82 65 -158 70 -174 102 -254 121
-294 8 -17 14 -36 14 -41 0 -6 6 -23 14 -39 8 -15 19 -39 24 -53 6 -14 17 -41
25 -60 8 -19 54 -129 100 -245 47 -115 117 -287 155 -381 l70 -171 -1289 0
-1289 0 6 21 c4 12 17 44 30 72 13 28 24 54 24 57 0 4 11 30 24 59 14 29 68
154 121 278 53 124 103 239 110 255 8 17 23 53 35 80 12 28 26 61 32 75 17 40
35 82 51 120 17 39 53 124 67 155 17 38 48 111 124 290 43 99 88 204 102 233
13 29 24 56 24 60 0 5 8 26 19 48 10 21 60 136 111 254 50 118 98 229 105 245
8 17 57 131 110 255 53 124 123 287 156 362 32 75 59 143 59 149 0 28 21 -12
73 -141z"/>
<path d="M16217 15014 c-1 -1 -54 -5 -117 -8 -214 -12 -255 -15 -315 -21 -33
-4 -80 -9 -105 -11 -25 -3 -56 -6 -70 -8 -14 -2 -50 -7 -80 -11 -30 -4 -66 -9
-80 -11 -14 -3 -41 -7 -60 -10 -19 -2 -48 -7 -65 -11 -16 -3 -37 -7 -45 -8 -8
-1 -28 -5 -45 -9 -16 -3 -40 -8 -53 -11 -13 -2 -31 -6 -40 -9 -9 -3 -30 -8
-47 -11 -41 -7 -239 -56 -280 -69 -5 -1 -23 -6 -40 -11 -51 -13 -328 -106
-362 -121 -17 -8 -34 -14 -37 -14 -26 0 -402 -174 -566 -262 -83 -44 -342
-205 -398 -246 -365 -270 -539 -428 -717 -652 -32 -41 -63 -76 -67 -78 -4 -2
-8 -10 -8 -17 0 -7 -3 -15 -8 -17 -4 -1 -22 -22 -40 -45 l-33 -42 19 -43 c11
-24 39 -88 62 -143 23 -55 53 -124 66 -153 13 -29 24 -54 24 -57 0 -2 13 -32
29 -67 16 -35 55 -124 86 -198 32 -74 66 -154 76 -177 10 -23 69 -158 130
-300 61 -142 119 -276 129 -298 10 -22 81 -188 159 -370 78 -181 148 -343 156
-360 7 -16 43 -100 80 -185 37 -85 70 -158 74 -162 4 -4 8 7 9 25 3 41 42 269
47 277 3 4 7 22 9 41 10 74 78 300 121 404 163 394 347 678 609 941 204 203
388 336 648 466 64 32 120 58 125 58 4 0 21 7 36 15 28 14 192 73 225 80 9 2
33 9 52 14 58 18 271 60 330 65 30 3 73 8 95 12 84 13 569 5 594 -11 3 -1 29
-5 56 -8 28 -3 57 -8 65 -11 8 -3 33 -7 55 -10 38 -5 147 -32 230 -56 37 -11
133 -48 215 -83 19 -8 40 -16 45 -17 6 -1 15 -5 20 -10 6 -4 41 -25 80 -45 38
-21 99 -60 135 -86 236 -169 491 -216 710 -129 66 26 168 93 231 152 26 24 64
57 84 73 21 17 43 35 49 40 6 6 31 26 56 45 25 19 47 37 50 40 3 3 70 59 150
124 80 64 154 125 165 134 11 10 67 55 125 102 58 46 107 87 110 90 3 4 53 45
112 92 121 97 118 83 38 173 -262 295 -475 473 -785 660 -114 69 -367 198
-456 234 -19 7 -47 19 -64 26 -34 15 -224 82 -270 96 -16 4 -60 18 -96 29 -36
11 -74 22 -85 24 -10 3 -66 16 -124 30 -113 27 -236 53 -297 61 -21 3 -54 8
-73 11 -65 10 -105 15 -140 19 -19 2 -51 6 -70 9 -19 3 -71 8 -115 11 -44 3
-114 8 -155 11 -65 6 -359 12 -363 8z"/>
<path d="M732 11049 c-52 -11 -106 -53 -129 -100 -30 -60 -53 -140 -39 -132 8
5 8 3 0 -8 -14 -17 -15 -90 -1 -106 6 -9 6 -13 -3 -13 -9 0 -9 -4 -2 -12 6 -7
13 -38 16 -68 12 -109 18 -147 36 -250 11 -58 22 -121 25 -140 8 -49 53 -235
71 -295 8 -27 16 -61 19 -74 2 -14 32 -106 66 -205 81 -240 149 -393 289 -651
43 -80 169 -271 244 -370 448 -592 1106 -1023 1839 -1205 170 -42 194 -47 274
-54 28 -3 71 -10 95 -15 23 -5 63 -13 88 -16 24 -4 47 -8 50 -10 7 -4 99 -17
220 -30 36 -4 74 -9 85 -11 56 -11 232 -19 415 -19 206 0 299 6 399 25 30 5
56 8 59 6 2 -3 15 -1 29 5 13 5 39 11 56 13 56 7 240 73 310 110 72 38 177
117 214 160 81 93 143 217 157 312 4 22 9 51 11 64 3 14 6 64 6 113 0 287
-145 540 -432 753 -92 69 -249 164 -269 164 -5 0 -10 5 -10 10 0 6 -5 10 -11
10 -5 0 -48 18 -95 40 -47 22 -91 40 -98 40 -6 0 -16 4 -21 8 -10 9 -148 60
-220 82 -22 7 -46 17 -52 23 -7 5 -13 7 -13 4 0 -4 -19 1 -42 9 -34 12 -160
46 -258 69 -33 9 -307 64 -340 69 -19 3 -46 8 -60 10 -14 2 -47 7 -75 11 -53
7 -114 22 -210 51 -33 10 -62 18 -65 19 -79 17 -171 45 -365 110 -121 41 -183
64 -310 113 -169 65 -435 193 -615 296 -79 45 -84 48 -182 114 -43 28 -83 52
-88 52 -4 0 -10 3 -12 8 -1 4 -34 29 -72 56 -225 160 -524 453 -645 634 -109
162 -233 243 -339 221z"/>
<path d="M17919 8353 c-18 -27 -66 -88 -108 -138 -218 -262 -481 -461 -781
-590 -123 -54 -326 -117 -420 -131 -46 -7 -80 -13 -105 -18 -11 -2 -49 -7 -85
-11 -36 -4 -78 -9 -95 -11 -36 -4 -343 -4 -400 0 -93 8 -172 18 -205 26 -19 5
-53 11 -75 14 -22 3 -83 17 -135 31 -52 14 -103 27 -112 30 -9 2 -27 9 -40 16
-13 7 -24 11 -26 10 -4 -4 -108 37 -180 70 -53 25 -152 95 -182 129 -3 3 -19
16 -36 28 -31 21 -28 13 73 -221 57 -133 108 -251 113 -262 5 -11 34 -78 65
-150 31 -71 60 -139 65 -150 13 -28 50 -116 94 -217 8 -18 28 -67 46 -108 18
-41 38 -88 45 -105 7 -16 22 -50 33 -75 10 -25 50 -115 86 -200 37 -85 71
-164 76 -175 8 -18 24 -54 70 -160 9 -22 41 -96 70 -165 61 -142 65 -149 88
-148 16 1 98 -8 166 -17 36 -5 179 -17 219 -18 15 0 27 -4 27 -9 0 -4 11 -3
25 2 15 6 26 6 30 0 4 -7 13 -6 26 0 10 6 19 7 19 3 0 -4 20 -8 45 -8 25 0 45
2 45 5 0 3 28 5 63 6 126 2 292 16 452 39 11 1 43 6 70 10 77 10 108 16 114
19 3 2 23 7 45 10 237 38 697 181 955 298 221 99 358 175 541 296 63 43 122
82 130 89 290 229 436 373 669 658 54 67 93 127 85 135 -7 7 -238 180 -293
220 -33 23 -447 332 -461 343 -8 7 -49 37 -90 67 -41 30 -82 60 -90 67 -29 23
-585 437 -619 461 -18 13 -40 30 -48 38 -22 22 -29 18 -64 -33z"/>
</g>
</svg>
